HIERARCHY
ROOT Hips
{
  OFFSET 13.0864 86.5717 102.43
  CHANNELS 6 Xposition Yposition Zposition Zrotation Xrotation Yrotation
  JOINT ToSpine
  {
    OFFSET -2.69724 7.43032 -0.144315
    CHANNELS 3 Zrotation Xrotation Yrotation
    JOINT Spine
    {
      OFFSET -0.0310711 10.7595 1.96963
      CHANNELS 3 Zrotation Xrotation Yrotation
      JOINT Spine1
      {
        OFFSET 13.1342 3.43533 0.764692
        CHANNELS 3 Zrotation Xrotation Yrotation
        JOINT Neck
        {
          OFFSET 29.8703 7.82586 -0.130764
          CHANNELS 3 Zrotation Xrotation Yrotation
          JOINT Head
          {
            OFFSET 9.52751 0.295786 -0.907742
            CHANNELS 3 Zrotation Xrotation Yrotation
            End Site
            {
              OFFSET 16.4037 0.713936 2.7358
            }
          }
        }
        JOINT LeftShoulder
        {
          OFFSET 27.5574 4.95586 2.47156
          CHANNELS 3 Zrotation Xrotation Yrotation
          JOINT LeftArm
          {
            OFFSET 1.20734 -0.998971 20.1238
            CHANNELS 3 Zrotation Xrotation Yrotation
            JOINT LeftForeArm
            {
              OFFSET 26.8049 -0.0536703 -0.155908
              CHANNELS 3 Zrotation Xrotation Yrotation
              JOINT LeftHand
              {
                OFFSET 26.6817 0 0.320147
                CHANNELS 3 Zrotation Xrotation Yrotation
                End Site
                {
                  OFFSET 18.6119 0 0.382219
                }
              }
            }
          }
        }
        JOINT RightShoulder
        {
          OFFSET 27.5927 4.71444 -2.65209
          CHANNELS 3 Zrotation Xrotation Yrotation
          JOINT RightArm
          {
            OFFSET 2.83739 -1.17114 -18.7564
            CHANNELS 3 Zrotation Xrotation Yrotation
            JOINT RightForeArm
            {
              OFFSET 28.839 -0.0548439 1.22491
              CHANNELS 3 Zrotation Xrotation Yrotation
              JOINT RightHand
              {
                OFFSET 26.5114 0 -0.101894
                CHANNELS 3 Zrotation Xrotation Yrotation
                End Site
                {
                  OFFSET 18.2168 0 0
                }
              }
            }
          }
        }
      }
    }
  }
  JOINT LeftUpLeg
  {
    OFFSET -4.76168 -1.9167 -10.2353
    CHANNELS 3 Zrotation Xrotation Yrotation
    JOINT LeftLeg
    {
      OFFSET 2.55951 -42.0585 -8.02213
      CHANNELS 3 Zrotation Xrotation Yrotation
      JOINT LeftFoot
      {
        OFFSET 3.16357 -42.5282 -3.95426
        CHANNELS 3 Zrotation Xrotation Yrotation
        JOINT LeftToeBase
        {
          OFFSET 0.346054 -6.02161 12.8035
          CHANNELS 3 Zrotation Xrotation Yrotation
          End Site
          {
            OFFSET 0.134235 -1.35082 5.13018
          }
        }
      }
    }
  }
  JOINT RightUpLeg
  {
    OFFSET -4.94151 -1.41743 10.6446
    CHANNELS 3 Zrotation Xrotation Yrotation
    JOINT RightLeg
    {
      OFFSET -2.56294 -42.0364 -7.94377
      CHANNELS 3 Zrotation Xrotation Yrotation
      JOINT RightFoot
      {
        OFFSET -3.0952 -42.555 -4.02241
        CHANNELS 3 Zrotation Xrotation Yrotation
        JOINT RightToeBase
        {
          OFFSET -0.0828122 -6.13587 12.8035
          CHANNELS 3 Zrotation Xrotation Yrotation
          End Site
          {
            OFFSET -0.131328 -1.35082 5.13018
          }
        }
      }
    }
  }
}
MOTION
Frames:	10
Frame Time:	0.0333333
14.2554 92.5061 115.157 68.1803 -33.6634 -12.6044 -70.1915 0 88.8779 86.5167 72.1327 -1.36078 3.49942 20.3137 5.87647 -121.88 31.3223 149.837 -166.534 77.5375 -160.746 0.0573086 -18.1128 -22.2452 -64.0263 26.4997 -144.525 24.6792 5.56343 -77.474 0.420957 0.000572501 0.358661 -2.31741 7.95567 43.3516 -123.018 -2.84274 102.881 7.79375 -5.98939 52.8423 0.58676 0.000329663 0.0646654 -46.7348 12.3229 97.6864 -2.618 44.2423 -3.1763 0.249794 -14.8117 -1.27154 2.71177 -8.19241 9.47585 -36.2253 -13.75 77.2805 1.08087 36.1762 -3.53781 -4.05579 0.0181188 0.672976 0.339539 -4.59596 1.6342 
14.401 92.6252 114.31 68.4526 -34.2639 -12.657 -70.1915 0 88.8779 90.5485 71.2895 -5.17254 2.41424 19.7796 4.68647 -120.498 32.169 151.811 173.783 77.276 -141.216 0.358292 -16.2917 -20.8359 -64.0772 26.8465 -146.457 24.4111 4.58196 -79.3871 0.420957 0.000572501 0.358661 -2.4878 8.7394 42.6235 -122.912 -4.08521 103.346 7.95306 -5.6729 54.8767 0.58676 0.000329663 0.0646654 -47.1851 12.1793 98.6488 -2.78126 44.2606 -4.48615 0.0702381 -14.6261 -1.25655 2.95201 -8.96765 11.3413 -36.5632 -14.5934 76.6841 1.29437 35.5256 -1.96268 -4.2758 1.81279 0.627571 0.328822 -5.76786 3.11447 
14.5556 92.7607 113.188 68.3581 -35.2982 -12.6445 -70.1915 0 88.8779 90.4347 71.6992 -5.29381 2.35341 20.1864 4.75407 -118.878 31.8369 151.622 169.802 76.9146 -136.877 0.428833 -16.1647 -19.8469 -64.8542 27.1294 -148.807 24.5473 3.82423 -81.0441 0.420957 0.000572501 0.358661 -2.37023 8.69775 41.4085 -125.405 -6.08528 103.697 8.24189 -5.32162 57.4995 0.58676 0.000329663 0.0646654 -47.3081 12.3585 99.6376 -2.83493 44.3283 -4.89295 0.143457 -13.7516 -1.18612 3.99777 -10.7623 11.7665 -36.6415 -15.2656 75.9989 1.66531 34.9663 0.947085 -2.64778 4.21569 0.260865 0.409736 -6.50135 3.21071 
14.6964 92.8121 112.237 68.4295 -36.3689 -12.5064 -70.1915 0 88.8779 90.7934 72.1019 -5.7837 2.32572 20.5865 4.86032 -118.706 31.3598 152.15 170.491 76.42 -138.269 0.491624 -15.8948 -19.1658 -65.5172 27.4465 -150.544 24.7906 3.04254 -82.791 0.420957 0.000572501 0.358661 -2.30359 8.62891 40.8638 -126.694 -6.70026 103.665 10.6332 -6.12449 60.4323 0.58676 0.000329663 0.0646654 -47.3307 12.4347 100.067 -2.72898 44.7611 -3.61411 0.640482 -14.1345 -1.21909 3.86505 -10.3019 10.2444 -36.5251 -15.2245 76.8469 2.08112 35.1973 4.84706 0.267896 4.68205 -0.256444 0.987302 -5.6611 -2.67415 
14.7489 92.7377 111.692 68.6806 -37.5174 -12.5539 -70.1915 0 88.8779 89.588 72.8347 -5.27287 2.55021 21.1401 5.51391 -118.315 31.395 152.991 169.585 76.1893 -137.87 0.477611 -16.0414 -19.1624 -65.9479 27.2942 -151.288 23.0957 1.94273 -84.7888 0.420957 0.000572501 0.358661 -2.25333 8.63419 40.2669 -127.876 -6.9925 103.13 12.2684 -6.15138 63.7584 0.58676 0.000329663 0.0646654 -47.6994 12.4051 100.407 -2.67509 45.1698 -2.7983 1.21113 -14.2593 -1.23041 4.09677 -10.6831 10.1759 -36.2742 -15.0174 77.9842 2.29678 36.7727 7.29331 -2.25397 4.54117 0.178088 1.41698 -9.07964 -3.81162 
14.7843 92.6631 111.381 69.1744 -38.2879 -12.4726 -70.1915 0 88.8779 88.5673 73.3703 -5.04738 2.67952 21.524 6.10027 -118.284 31.4452 154.146 168.59 75.805 -137.543 0.498841 -15.8171 -19.1978 -66.5083 27.3657 -151.676 24.0675 1.23612 -86.8044 0.420957 0.000572501 0.358661 -2.18358 8.61129 39.5195 -128.541 -7.60287 102.081 11.9564 -5.14638 67.0192 0.58676 0.000329663 0.0646654 -48.2231 12.3055 100.674 -2.62855 45.4499 -2.20769 1.62359 -14.2218 -1.229 4.29046 -10.9912 10.0459 -36.2609 -14.8285 79.3365 2.28277 39.0473 5.62757 -2.91731 3.38399 0.348438 1.56824 -10.2755 -4.32737 
14.7936 92.5902 111.321 69.7536 -38.4726 -12.126 -70.1915 0 88.8779 88.4289 73.2223 -4.73101 2.67783 21.685 5.02403 -118.087 31.0396 154.622 168.834 75.3727 -138.872 0.602839 -15.1965 -18.2152 -66.1643 28.0184 -152.144 24.3558 0.0245245 -88.4811 0.420957 0.000572501 0.358661 -2.1656 8.25486 40.4625 -128.801 -7.93663 101.829 11.4923 -4.20509 70.1292 0.58676 0.000329663 0.0646654 -48.6107 12.1878 100.478 -2.69727 45.7365 -2.49392 1.35515 -14.3023 -1.23377 4.43028 -11.3758 11.1013 -37.1062 -14.99 79.3486 2.10203 40.1057 3.16488 -4.37099 3.17723 0.592327 1.23351 -10.2864 0.260432 
14.7702 92.4633 111.522 70.4203 -38.193 -11.5772 -70.1915 0 88.8779 87.8119 72.8732 -3.76876 2.89325 21.6426 3.88302 -117.922 30.7153 155.421 168.812 74.8539 -139.489 0.646422 -14.8307 -17.9444 -65.8081 28.4126 -151.795 23.5399 -0.432062 -90.0023 0.420957 0.000572501 0.358661 -2.2448 8.41638 40.8571 -128.743 -8.19548 100.807 12.0725 -3.73327 72.9996 0.58676 0.000329663 0.0646654 -48.8111 12.2041 100.05 -2.79563 46.2288 -2.83856 1.26155 -14.4547 -1.24379 4.42773 -11.4839 11.9247 -39.054 -14.6827 79.3497 2.16936 38.6878 4.53716 -4.60231 4.35549 0.58768 1.68886 -13.6155 -0.526687 
14.6935 92.2675 111.872 71.0354 -37.9125 -10.8155 -70.1915 0 88.8779 86.8458 72.4797 -2.23549 3.55601 21.4606 3.0737 -119.119 30.9037 157.416 167.653 74.1859 -139.806 0.685337 -14.2266 -18.3262 -65.5934 28.5679 -151.219 23.1351 -0.936516 -91.9526 0.420957 0.000572501 0.358661 -2.3317 8.89678 40.3365 -128.608 -8.98363 99.343 13.5668 -3.49044 75.7371 0.58676 0.000329663 0.0646654 -48.8559 12.7428 99.6547 -2.84007 46.8502 -2.64574 1.64228 -14.9417 -1.27777 4.2001 -11.0116 11.2196 -40.7506 -14.1047 79.5438 1.88059 36.7568 3.30328 -1.9868 2.11367 0.271455 1.15184 -10.742 2.05984 
14.5242 92.1442 112.253 71.4249 -37.6617 -10.4421 -70.1915 0 88.8779 85.3664 72.454 -0.686203 3.9067 21.5833 2.6212 -118.281 30.0937 156.915 171.827 74.0794 -143.458 0.67827 -14.2503 -18.4637 -64.8607 29.55 -150.679 22.5412 -1.67663 -93.322 0.420957 0.000572501 0.358661 -2.31548 8.49288 41.4546 -128.366 -8.66592 99.0106 14.2278 -3.01111 78.1692 0.58676 0.000329663 0.0646654 -48.8584 12.8979 99.1136 -2.90862 47.2587 -2.82677 1.15231 -15.4689 -1.31671 4.04174 -10.8247 11.7237 -41.3579 -13.6721 79.8714 1.71814 36.6545 1.89883 -2.85815 -0.558206 0.545732 0.698813 -8.37497 3.35016 
